<svg xmlns="http://www.w3.org/2000/svg" viewBox="0 0 512 512" role="img" aria-label="ARISE SYSTEM icon">
  <defs>
    <radialGradient id="core" cx="50%" cy="42%" r="62%">
      <stop offset="0" stop-color="#75fbff"/>
      <stop offset="0.42" stop-color="#1a9bff"/>
      <stop offset="1" stop-color="#020814"/>
    </radialGradient>
    <linearGradient id="blade" x1="0" x2="1" y1="0" y2="1">
      <stop offset="0" stop-color="#f5fbff"/>
      <stop offset="0.45" stop-color="#75fbff"/>
      <stop offset="1" stop-color="#245cff"/>
    </linearGradient>
  </defs>
  <rect width="512" height="512" rx="112" fill="#020814"/>
  <circle cx="256" cy="256" r="214" fill="none" stroke="#123b68" stroke-width="14"/>
  <circle cx="256" cy="256" r="174" fill="url(#core)" opacity="0.88"/>
  <path d="M256 80 342 214 432 244 360 306 370 424 256 366 142 424 152 306 80 244 170 214Z" fill="#020814" stroke="#75fbff" stroke-width="12" stroke-linejoin="round"/>
  <path d="M256 112 314 226 382 250 324 294 330 372 256 332 182 372 188 294 130 250 198 226Z" fill="url(#blade)" opacity="0.92"/>
  <path d="M197 254h118l-72 154 18-112h-64z" fill="#020814" opacity="0.92"/>
  <path d="M192 176h128M170 214h172M158 300h196" fill="none" stroke="#dffcff" stroke-width="10" stroke-linecap="round" opacity="0.85"/>
</svg>
