<svg xmlns="http://www.w3.org/2000/svg" viewBox="0 0 512 512">
<defs><linearGradient id="bg" x1="0" y1="0" x2="1" y2="1"><stop stop-color="#020814"/><stop offset="1" stop-color="#0e2b53"/></linearGradient><linearGradient id="t" x1="0" y1="0" x2="1" y2="1"><stop stop-color="#f7fdff"/><stop offset="1" stop-color="#7fc8ff"/></linearGradient><filter id="glow"><feGaussianBlur stdDeviation="8" result="b"/><feMerge><feMergeNode in="b"/><feMergeNode in="SourceGraphic"/></feMerge></filter></defs>
<rect width="512" height="512" rx="116" fill="url(#bg)"/>
<path d="M256 48 164 92 100 72l20 92-44 80 68 36 12 88 100 76 100-76 12-88 68-36-44-80 20-92-64 20-92-44Z" fill="url(#t)" filter="url(#glow)"/>
<g fill="none" stroke="#07121f" stroke-width="18" stroke-linecap="round" stroke-linejoin="round"><path d="M166 140 118 112l26 84M346 140l48-28-26 84"/><path d="M192 180l-48-24 38 58M320 180l48-24-38 58"/><path d="M208 260c28-22 68-22 96 0M184 238l48 18M328 238l-48 18"/><path d="M226 306l30 26 30-26M256 332v50M200 364l56 32 56-32"/><path d="M156 306c34 16 66 16 100 0 34 16 66 16 100 0"/></g></svg>